<svg xmlns="http://www.w3.org/2000/svg" width="32" height="32" viewBox="0 0 32 32"><style>.st0{fill:#FFF}</style><g id="Layer_2"><path d="M16.677 9.714l-3.357-3.36a4.93 4.93 0 0 0-6.963 0 4.927 4.927 0 0 0 0 6.96l1.737 1.74-3.48 3.48-1.74-1.736c-3.832-3.83-3.83-10.096 0-13.924 3.83-3.83 10.096-3.83 13.924 0l3.357 3.356-3.478 3.484zM15.326 22.222l3.357 3.36a4.925 4.925 0 0 0 6.96 0 4.927 4.927 0 0 0 0-6.962l-1.74-1.74 3.483-3.478 1.74 1.74c3.833 3.832 3.828 10.095 0 13.925-3.83 3.825-9.972 3.952-13.8.12l-3.485-3.48 3.486-3.485z"/></g></svg>